<?xml version="1.0" encoding="UTF-8"?><svg id="a" xmlns="http://www.w3.org/2000/svg" viewBox="0 0 425 33"><rect width="425" height="33" fill="none"/><g id="b"><g id="c"><g id="d"><g id="e"><path id="f" d="M234.9,9.05c4.4,0,7.9,3.5,7.9,7.9s-3.6,7.9-7.9,7.9-7.9-3.5-7.9-7.9c-.1-4.3,3.6-7.9,7.9-7.9m0,1.5c-3.5,0-6.2,2.8-6.2,6.3s2.8,6.3,6.2,6.3,6.2-2.9,6.2-6.3c.1-3.3-2.7-6.3-6.2-6.3" fill="#fff" fill-rule="evenodd"/><polygon id="g" points=".4 24.65 2.1 24.65 2.1 9.25 .4 9.25 .4 24.65" fill="#fff" fill-rule="evenodd"/><polygon id="h" points="8.6 9.25 6.9 9.25 6.9 24.65 15.8 24.65 15.8 23.05 8.6 23.05 8.6 9.25" fill="#fff" fill-rule="evenodd"/><polygon id="i" points="20.4 9.25 18.7 9.25 18.7 24.65 27.6 24.65 27.6 23.05 20.4 23.05 20.4 9.25" fill="#fff" fill-rule="evenodd"/><polygon id="j" points="31.4 24.65 33.1 24.65 33.1 9.25 31.4 9.25 31.4 24.65" fill="#fff" fill-rule="evenodd"/><polygon id="k" points="38.9 24.65 40.6 24.65 40.6 12.75 52.5 25.35 52.5 9.25 50.8 9.25 50.8 21.15 38.9 8.55 38.9 24.65" fill="#fff" fill-rule="evenodd"/><path id="l" d="M63.8,10.55c3.5,0,6.2,2.8,6.2,6.3s-2.8,6.4-6.2,6.4-6.2-2.9-6.2-6.3c-.1-3.5,2.7-6.4,6.2-6.4m0-1.5c-4.4,0-7.9,3.5-7.9,7.9s3.6,7.9,7.9,7.9,7.9-3.5,7.9-7.9-3.6-7.9-7.9-7.9" fill="#fff" fill-rule="evenodd"/><polygon id="m" points="75.8 24.65 77.5 24.65 77.5 9.25 75.8 9.25 75.8 24.65" fill="#fff" fill-rule="evenodd"/><polygon id="n" points="104 24.65 105.7 24.65 105.7 9.25 104 9.25 104 24.65" fill="#fff" fill-rule="evenodd"/><polygon id="o" points="111.4 24.65 113.1 24.65 113.1 12.75 125.1 25.35 125.1 9.25 123.4 9.25 123.4 21.15 111.4 8.55 111.4 24.65" fill="#fff" fill-rule="evenodd"/><path id="p" d="M138.6,11.35c-.8-1.5-2.8-2.4-4.5-2.4-2.3,0-4.4,1.5-4.4,3.9,0,2.2,1.1,2.8,2.9,3.6l1.7,.8c1.5,.7,3.2,1.2,3.2,3.1,0,1.7-1.7,2.9-3.3,2.9-1.7,0-3.4-1.2-3.6-2.8l-1.7,.5c.5,2.4,2.8,4,5.3,4,2.7,0,5-2,5-4.8,0-2.5-1.7-3.4-3.6-4.3l-1.4-.6c-1-.5-2.7-.9-2.7-2.3s1.4-2.4,2.7-2.4c1.2,0,2.6,.6,3.2,1.7l1.2-.9Z" fill="#fff" fill-rule="evenodd"/><path id="q" d="M90.9,11.35c-.8-1.5-2.8-2.4-4.5-2.4-2.3,0-4.4,1.5-4.4,3.9,0,2.2,1.1,2.8,2.9,3.6l1.7,.8c1.5,.7,3.2,1.2,3.2,3.1,0,1.7-1.7,2.9-3.3,2.9-1.7,0-3.4-1.2-3.6-2.8l-1.7,.5c.5,2.4,2.8,4,5.3,4s5-2,5-4.8c0-2.5-1.7-3.4-3.6-4.3l-1.4-.6c-1-.5-2.7-.9-2.7-2.3s1.4-2.4,2.7-2.4,2.6,.6,3.2,1.7l1.2-.9Z" fill="#fff" fill-rule="evenodd"/><polygon id="r" points="148 10.85 153 10.85 153 9.25 141.4 9.25 141.4 10.85 146.3 10.85 146.3 24.65 148 24.65 148 10.85" fill="#fff" fill-rule="evenodd"/><polygon id="s" points="156.9 24.65 158.6 24.65 158.6 9.25 156.9 9.25 156.9 24.65" fill="#fff" fill-rule="evenodd"/><polygon id="t" points="169.2 10.85 174.2 10.85 174.2 9.25 162.6 9.25 162.6 10.85 167.5 10.85 167.5 24.65 169.2 24.65 169.2 10.85" fill="#fff" fill-rule="evenodd"/><path id="u" d="M179.7,9.25h-1.7v9.6c0,1.7,.1,3.2,1.5,4.4,1,1,2.5,1.6,4,1.6,1.6,0,3.1-.6,4.1-1.7,1.2-1.2,1.4-2.6,1.4-4.3V9.25h-1.7v9.2c0,1.2,.1,2.5-.8,3.5-.7,.9-1.9,1.4-3.1,1.4-1.1,0-2.4-.6-3.1-1.5-.7-1-.7-2.3-.7-3.4V9.25h.1Z" fill="#fff" fill-rule="evenodd"/><polygon id="v" points="198.6 10.85 203.6 10.85 203.6 9.25 191.9 9.25 191.9 10.85 196.9 10.85 196.9 24.65 198.6 24.65 198.6 10.85" fill="#fff" fill-rule="evenodd"/><polygon id="w" points="281.2 24.65 290.3 24.65 290.3 23.05 282.9 23.05 282.9 17.55 290 17.55 290 15.95 282.9 15.95 282.9 10.85 290.3 10.85 290.3 9.25 281.2 9.25 281.2 24.65" fill="#fff" fill-rule="evenodd"/><polygon id="x" points="207.5 24.65 216.4 24.65 216.4 23.05 209.2 23.05 209.2 17.55 216.3 17.55 216.3 15.95 209.2 15.95 209.2 10.85 216.4 10.85 216.4 9.25 207.5 9.25 207.5 24.65" fill="#fff" fill-rule="evenodd"/><polygon id="y" points="272.5 10.85 277.5 10.85 277.5 9.25 265.9 9.25 265.9 10.85 270.8 10.85 270.8 24.65 272.5 24.65 272.5 10.85" fill="#fff" fill-rule="evenodd"/><path id="z" d="M306.2,10.45c-1.4-1-2.8-1.5-4.5-1.5-4.4,0-7.9,3.6-7.9,8s3.6,7.9,7.9,7.9c1.6,0,3.3-.6,4.5-1.5v-2.1c-1.2,1.2-2.9,2-4.6,2-3.4,0-6.2-2.9-6.2-6.3s2.7-6.3,6.2-6.3c1.8,0,3.4,.8,4.6,2v-2.2Z" fill="#fff" fill-rule="evenodd"/><polygon id="aa" points="313.1 15.95 313.1 9.25 311.4 9.25 311.4 24.55 313.1 24.55 313.1 17.55 321.5 17.55 321.5 24.55 323.2 24.55 323.2 9.25 321.5 9.25 321.5 15.95 313.1 15.95" fill="#fff" fill-rule="evenodd"/><polygon id="ab" points="328.5 24.65 330.2 24.65 330.2 12.75 342.3 25.35 342.3 9.25 340.4 9.25 340.4 21.15 328.5 8.55 328.5 24.65" fill="#fff" fill-rule="evenodd"/><path id="ac" d="M353.8,10.55c3.5,0,6.2,2.8,6.2,6.3s-2.8,6.3-6.2,6.3-6.2-2.9-6.2-6.3c-.1-3.4,2.7-6.3,6.2-6.3m0-1.5c-4.4,0-7.9,3.5-7.9,7.9s3.6,7.9,7.9,7.9,7.9-3.5,7.9-7.9-3.6-7.9-7.9-7.9" fill="#fff" fill-rule="evenodd"/><polygon id="ad" points="367.5 9.25 365.8 9.25 365.8 24.65 374.6 24.65 374.6 23.05 367.5 23.05 367.5 9.25" fill="#fff" fill-rule="evenodd"/><path id="ae" d="M383.9,10.55c3.5,0,6.2,2.8,6.2,6.3s-2.8,6.3-6.2,6.3-6.2-2.9-6.2-6.3c-.1-3.4,2.7-6.3,6.2-6.3m0-1.5c-4.4,0-7.9,3.5-7.9,7.9s3.6,7.9,7.9,7.9,7.9-3.5,7.9-7.9-3.6-7.9-7.9-7.9" fill="#fff" fill-rule="evenodd"/><path id="af" d="M403.8,16.85v1.6h4.5c0,2.8-2.8,4.8-5.4,4.8-1.6,0-3.3-.8-4.3-1.9-1.1-1.1-1.8-2.7-1.8-4.3,0-3.5,2.7-6.5,6.2-6.5,2.3,0,4,1.1,5.2,2.9l1.2-1.1c-1.6-2.2-3.9-3.3-6.5-3.3-4.4,0-7.9,3.6-7.9,7.9s3.6,7.9,7.9,7.9c2.2,0,4.3-.9,5.7-2.6,1.4-1.6,1.6-3.3,1.6-5.4,0,0-6.4,0-6.4,0Z" fill="#fff" fill-rule="evenodd"/><polygon id="ag" points="417.9 17.95 417.9 24.65 419.6 24.65 419.6 17.95 424.6 9.25 422.7 9.25 418.7 16.05 414.9 9.25 412.8 9.25 417.9 17.95" fill="#fff" fill-rule="evenodd"/><polygon id="ah" points="247 24.75 248.7 24.75 248.7 17.55 255.7 17.55 255.7 15.95 248.7 15.95 248.7 11.05 255.9 11.05 255.9 9.45 247 9.45 247 24.75" fill="#fff" fill-rule="evenodd"/></g></g></g></g></svg>