<?xml version="1.0" encoding="UTF-8"?>
<svg width="39px" height="41px" viewBox="0 0 39 41" version="1.1" xmlns="http://www.w3.org/2000/svg" xmlns:xlink="http://www.w3.org/1999/xlink">
    <!-- Generator: Sketch 56.3 (81716) - https://sketch.com -->
    <title>Shape</title>
    <desc>Created with Sketch.</desc>
    <g id="Program-Listing-*" stroke="none" stroke-width="1" fill="none" fill-rule="evenodd">
        <g id="Programs-Listing---Desktop-Alt-tabs---RD2" transform="translate(-1221.000000, -680.000000)" fill="#222222" fill-rule="nonzero">
            <g id="Group-9" transform="translate(-21.000000, 572.000000)">
                <g id="Search-Region" transform="translate(0.000000, 27.000000)">
                    <g id="Text-Field-+-Icon" transform="translate(179.000000, 77.000000)">
                        <g id="search" transform="translate(1063.000000, 4.000000)">
                            <path d="M38.4070306,37.3445037 L28.7928634,27.1956255 C31.2648347,24.2130745 32.6192424,20.460415 32.6192424,16.5537338 C32.6192424,7.42614893 25.3026045,0 16.3096212,0 C7.31663789,0 0,7.42614893 0,16.5537338 C0,25.6813187 7.31663789,33.1074676 16.3096212,33.1074676 C19.6857128,33.1074676 22.9029628,32.0739388 25.6536159,30.1119615 L35.3408218,40.3378506 C35.7457259,40.7646491 36.2903254,41 36.8739262,41 C37.4263259,41 37.9503612,40.7862409 38.3481741,40.397588 C39.1934379,39.5720605 39.2203843,38.2031387 38.4070306,37.3445037 Z M16.3096212,4.31836534 C22.9568555,4.31836534 28.3645586,9.80700769 28.3645586,16.5537338 C28.3645586,23.3004599 22.9568555,28.7891023 16.3096212,28.7891023 C9.66238688,28.7891023 4.25468379,23.3004599 4.25468379,16.5537338 C4.25468379,9.80700769 9.66238688,4.31836534 16.3096212,4.31836534 Z" id="Shape"></path>
                        </g>
                    </g>
                </g>
            </g>
        </g>
    </g>
</svg>