<?xml version="1.0" encoding="utf-8"?>
<!-- Generator: Adobe Illustrator 23.1.1, SVG Export Plug-In . SVG Version: 6.00 Build 0)  -->
<svg version="1.1" id="Layer_1" xmlns="http://www.w3.org/2000/svg" xmlns:xlink="http://www.w3.org/1999/xlink" x="0px" y="0px"
	 viewBox="0 0 16 17" style="enable-background:new 0 0 16 17;" xml:space="preserve">
<style type="text/css">
	.st0{fill:#CC0000;}
	.st1{display:none;fill-rule:evenodd;clip-rule:evenodd;fill:#CC0000;}
</style>
<title>calendar</title>
<desc>Created with Sketch.</desc>
<rect id="Rectangle" x="5.3" y="6.4" class="st0" width="2.1" height="2.1"/>
<rect x="8.5" y="6.4" class="st0" width="2.1" height="2.1"/>
<rect x="11.7" y="6.4" class="st0" width="2.1" height="2.1"/>
<rect x="2.1" y="9.6" class="st0" width="2.1" height="2.1"/>
<rect x="5.3" y="9.6" class="st0" width="2.1" height="2.1"/>
<rect x="8.5" y="9.6" class="st0" width="2.1" height="2.1"/>
<rect x="11.7" y="9.6" class="st0" width="2.1" height="2.1"/>
<rect x="2.1" y="12.8" class="st0" width="2.1" height="2.1"/>
<rect x="5.3" y="12.8" class="st0" width="2.1" height="2.1"/>
<rect x="8.5" y="12.8" class="st0" width="2.1" height="2.1"/>
<path id="Shape" class="st0" d="M13.9,2.1V0.5c0-0.3-0.2-0.5-0.5-0.5h-2.1c-0.3,0-0.5,0.2-0.5,0.5v1.6H5.3V0.5C5.3,0.2,5.1,0,4.8,0
	H2.7C2.4,0,2.1,0.2,2.1,0.5v1.6H0V17h16V2.1H13.9z M11.7,1.1h1.1v2.1h-1.1V1.1z M3.2,1.1h1.1v2.1H3.2V1.1z M14.9,15.9H1.1V5.3h13.9
	V15.9z"/>
<rect id="Base" class="st1" width="16" height="17"/>
</svg>
