<svg xmlns="http://www.w3.org/2000/svg" width="257.28" height="19" viewBox="0 0 257.28 19"><title>Discover. Create. Solve.</title><path d="M13.22,21v-4.1c0-1.07,0-2.15-.05-3.23L11,13.49V12.3h7.5a9.45,9.45,0,0,1,4.45,1,7,7,0,0,1,2.93,2.87,9.25,9.25,0,0,1,1,4.53,8.62,8.62,0,0,1-1.14,4.56,7.43,7.43,0,0,1-3.14,2.86,10.25,10.25,0,0,1-4.61,1H11V27.9l2.13-.23c0-1.06.05-2.14.05-3.24Zm3.27,0c0,1.16,0,2.3,0,3.42s0,2.22,0,3.31H18a4.74,4.74,0,0,0,4-1.85,8.43,8.43,0,0,0,1.42-5.21,8.61,8.61,0,0,0-1.4-5.3,4.6,4.6,0,0,0-3.87-1.82h-1.6c0,1.08,0,2.17,0,3.27s0,2.19,0,3.29Z" transform="translate(-11.04 -10.52)"/><path d="M34.81,28.05v1H28.52v-1l1.68-.33c0-.62,0-1.3,0-2v-3.1c0-.69,0-1.27,0-1.73s0-1-.06-1.46l-1.8-.23v-1l4.56-1.6.4.26-.07,3.57v5.25c0,.74,0,1.43,0,2.07Zm-3.09-13.8a2,2,0,0,1-1.37-.51,1.68,1.68,0,0,1-.56-1.29,1.71,1.71,0,0,1,.56-1.32,2,2,0,0,1,1.37-.51,1.89,1.89,0,0,1,1.35.51,1.74,1.74,0,0,1,.55,1.32,1.71,1.71,0,0,1-.55,1.29A1.89,1.89,0,0,1,31.72,14.25Z" transform="translate(-11.04 -10.52)"/><path d="M40.35,29.45a8,8,0,0,1-2.14-.27,8.58,8.58,0,0,1-1.93-.8l0-2.94H38l.45,2.36a5.17,5.17,0,0,0,2,.38,3.24,3.24,0,0,0,1.92-.46,1.45,1.45,0,0,0,.64-1.26,1.47,1.47,0,0,0-.51-1.16,5.35,5.35,0,0,0-1.72-.84L39.44,24a5.13,5.13,0,0,1-2.24-1.34,3.13,3.13,0,0,1-.82-2.23,3.56,3.56,0,0,1,.55-1.94,4,4,0,0,1,1.64-1.39,6.09,6.09,0,0,1,2.62-.52,6.89,6.89,0,0,1,2,.27,8.63,8.63,0,0,1,1.79.77l-.13,2.66H43.17l-.46-2.13a4,4,0,0,0-1.57-.3,2.49,2.49,0,0,0-1.57.43A1.41,1.41,0,0,0,39,19.46a1.43,1.43,0,0,0,.47,1.11,5.38,5.38,0,0,0,1.76.85l1,.3a5.84,5.84,0,0,1,2.64,1.57,3.57,3.57,0,0,1-.6,5.05A6.14,6.14,0,0,1,40.35,29.45Z" transform="translate(-11.04 -10.52)"/><path d="M53.73,17.82a2.9,2.9,0,0,0-1.68.52A3.56,3.56,0,0,0,50.79,20a6.83,6.83,0,0,0-.48,2.76,5.25,5.25,0,0,0,1,3.52,3.46,3.46,0,0,0,2.75,1.21A3.67,3.67,0,0,0,55.93,27a4.17,4.17,0,0,0,1.37-1.24l.76.55a4.89,4.89,0,0,1-1.88,2.35,5.62,5.62,0,0,1-3.06.8A6.31,6.31,0,0,1,50,28.7a5.35,5.35,0,0,1-2.14-2.18,7.25,7.25,0,0,1-.77-3.46A6.62,6.62,0,0,1,48,19.57a5.93,5.93,0,0,1,2.32-2.21,6.71,6.71,0,0,1,3.14-.76,5.22,5.22,0,0,1,2.24.47,4.47,4.47,0,0,1,1.63,1.25,3.56,3.56,0,0,1,.74,1.78,1.36,1.36,0,0,1-1.44,1.11q-1.42,0-1.65-1.77l-.33-1.52-.45-.08Z" transform="translate(-11.04 -10.52)"/><path d="M65.59,29.45a6.42,6.42,0,0,1-3.11-.76,5.61,5.61,0,0,1-2.19-2.21A6.92,6.92,0,0,1,59.48,23a6.69,6.69,0,0,1,.85-3.47,5.8,5.8,0,0,1,2.24-2.21,6.36,6.36,0,0,1,6,0,6,6,0,0,1,2.26,2.19A6.71,6.71,0,0,1,71.72,23a6.78,6.78,0,0,1-.83,3.45,5.67,5.67,0,0,1-2.2,2.2A6.41,6.41,0,0,1,65.59,29.45Zm0-1.25a2.3,2.3,0,0,0,2.09-1.26,8.12,8.12,0,0,0,.72-3.88q0-5.22-2.81-5.22T62.8,23.06a8.26,8.26,0,0,0,.71,3.88A2.25,2.25,0,0,0,65.59,28.2Z" transform="translate(-11.04 -10.52)"/><path d="M80.36,18V17h4.81V18l-1.42.3L79.6,29.19H78.1L73.52,18.25,72.2,18V17h6.66V18l-2,.3,2.76,7.35,2.54-7.32Z" transform="translate(-11.04 -10.52)"/><path d="M91.6,16.6a5.1,5.1,0,0,1,2.61.64A4.42,4.42,0,0,1,96,19a5.55,5.55,0,0,1,.62,2.68,5.72,5.72,0,0,1-.15,1.4H88.66a4.92,4.92,0,0,0,1.16,3.27,3.54,3.54,0,0,0,2.65,1.08A3.66,3.66,0,0,0,94.35,27a5.48,5.48,0,0,0,1.41-1.15l.73.66a5.38,5.38,0,0,1-2,2.16,5.74,5.74,0,0,1-3,.78,6.29,6.29,0,0,1-3.12-.76,5.25,5.25,0,0,1-2.1-2.2,7.11,7.11,0,0,1-.76-3.4,6.72,6.72,0,0,1,.87-3.49,6,6,0,0,1,2.28-2.23A6.2,6.2,0,0,1,91.6,16.6Zm-.17,1.22a2.19,2.19,0,0,0-1.21.39,3.08,3.08,0,0,0-1,1.28,6.81,6.81,0,0,0-.52,2.41h3.47a1.54,1.54,0,0,0,1.22-.38,1.7,1.7,0,0,0,.3-1.07,2.75,2.75,0,0,0-.66-1.9A2.06,2.06,0,0,0,91.43,17.82Z" transform="translate(-11.04 -10.52)"/><path d="M98.19,29.09v-1l1.62-.3q0-1,0-2.07V22.43c0-.69,0-1.25,0-1.66s0-.87-.06-1.38L98,19.16v-1l4.23-1.6.4.26L102.9,20a5.55,5.55,0,0,1,1.55-2.5,3.06,3.06,0,0,1,2-.85,2.31,2.31,0,0,1,1.26.36,1.59,1.59,0,0,1,.74,1,2.27,2.27,0,0,1-.45,1.46,1.49,1.49,0,0,1-1.19.52,2.31,2.31,0,0,1-1.72-.92l-.23-.25a6.13,6.13,0,0,0-1.93,3.14v3.71c0,.72,0,1.39,0,2l2.07.4v1Z" transform="translate(-11.04 -10.52)"/><path d="M109.62,29.45a2,2,0,0,1-2-2,2,2,0,0,1,.58-1.46,2,2,0,0,1,2.89,0,2,2,0,0,1,.58,1.46,2,2,0,0,1-2,2Z" transform="translate(-11.04 -10.52)"/><path d="M128.67,28.15a6.4,6.4,0,0,0,2.61-.58l.6-3.09h1.73l-.1,3.78a10.06,10.06,0,0,1-2.41.93,11.57,11.57,0,0,1-2.81.33,9.28,9.28,0,0,1-4.45-1.05,7.6,7.6,0,0,1-3.09-3,9.48,9.48,0,0,1-1.13-4.75,9.16,9.16,0,0,1,1.18-4.74,8,8,0,0,1,3.17-3,9.25,9.25,0,0,1,4.39-1.06,11.57,11.57,0,0,1,2.48.28,9.06,9.06,0,0,1,2.46,1l.1,3.8h-1.74l-.61-3.15a4.69,4.69,0,0,0-1.12-.43,5.24,5.24,0,0,0-1.11-.12A5.06,5.06,0,0,0,126,14a5.74,5.74,0,0,0-2,2.48,9.9,9.9,0,0,0-.78,4.2,10.44,10.44,0,0,0,.73,4.16,5.38,5.38,0,0,0,2,2.47A5,5,0,0,0,128.67,28.15Z" transform="translate(-11.04 -10.52)"/><path d="M135.1,29.09v-1l1.62-.3q0-1,0-2.07V22.43c0-.69,0-1.25,0-1.66s0-.87-.06-1.38l-1.77-.23v-1l4.23-1.6.4.26.28,3.09a5.55,5.55,0,0,1,1.55-2.5,3.06,3.06,0,0,1,2-.85,2.31,2.31,0,0,1,1.26.36,1.64,1.64,0,0,1,.75,1,2.33,2.33,0,0,1-.46,1.46,1.48,1.48,0,0,1-1.19.52A2.31,2.31,0,0,1,142,19l-.23-.25a6.13,6.13,0,0,0-1.93,3.14v3.71c0,.72,0,1.39,0,2l2.08.4v1Z" transform="translate(-11.04 -10.52)"/><path d="M151.92,16.6a5.1,5.1,0,0,1,2.61.64A4.49,4.49,0,0,1,156.27,19a5.55,5.55,0,0,1,.62,2.68,5.72,5.72,0,0,1-.15,1.4H149a4.87,4.87,0,0,0,1.16,3.27,3.53,3.53,0,0,0,2.64,1.08,3.67,3.67,0,0,0,1.89-.44,5.65,5.65,0,0,0,1.41-1.15l.73.66a5.38,5.38,0,0,1-2,2.16,5.78,5.78,0,0,1-3.06.78,6.26,6.26,0,0,1-3.11-.76,5.25,5.25,0,0,1-2.1-2.2,7.11,7.11,0,0,1-.76-3.4,6.72,6.72,0,0,1,.87-3.49,6,6,0,0,1,2.28-2.23A6.2,6.2,0,0,1,151.92,16.6Zm-.18,1.22a2.19,2.19,0,0,0-1.2.39,3,3,0,0,0-1,1.28A6.81,6.81,0,0,0,149,21.9h3.47a1.54,1.54,0,0,0,1.22-.38,1.7,1.7,0,0,0,.3-1.07,2.75,2.75,0,0,0-.66-1.9A2.06,2.06,0,0,0,151.74,17.82Z" transform="translate(-11.04 -10.52)"/><path d="M168,29.4a2.53,2.53,0,0,1-1.64-.51,2.48,2.48,0,0,1-.86-1.39,10.9,10.9,0,0,1-1.7,1.45,4,4,0,0,1-4.37-.33,2.93,2.93,0,0,1-1-2.37,3.1,3.1,0,0,1,.38-1.5,3.81,3.81,0,0,1,1.36-1.31,13.12,13.12,0,0,1,2.8-1.19c.34-.12.71-.24,1.14-.35l1.29-.36v-.71a4.14,4.14,0,0,0-.49-2.39,2.12,2.12,0,0,0-1.74-.62l-.49,0-.55.08-.3,1.39a2.22,2.22,0,0,1-.54,1.35,1.46,1.46,0,0,1-1.06.43A1.28,1.28,0,0,1,158.81,20a3.45,3.45,0,0,1,1.64-2.44,6.77,6.77,0,0,1,3.71-.91,4.32,4.32,0,0,1,3.22,1,5,5,0,0,1,1,3.54v5.52c0,.76.24,1.14.73,1.14a1.14,1.14,0,0,0,.89-.56l.58.51A2.64,2.64,0,0,1,168,29.4Zm-6.58-3.68a1.76,1.76,0,0,0,.52,1.43,1.87,1.87,0,0,0,1.28.45,2.11,2.11,0,0,0,1-.23,13.53,13.53,0,0,0,1.25-.79v-4l-1,.32-.8.28a3.83,3.83,0,0,0-1.73,1.17A2.31,2.31,0,0,0,161.4,25.72Z" transform="translate(-11.04 -10.52)"/><path d="M175.58,26a2.09,2.09,0,0,0,.37,1.36,1.22,1.22,0,0,0,1,.43,2.71,2.71,0,0,0,1.54-.63l.61.63A3.26,3.26,0,0,1,177.76,29a4.19,4.19,0,0,1-2,.45,3.53,3.53,0,0,1-2.39-.76,3.12,3.12,0,0,1-.86-2.44c0-.38,0-.75,0-1.1s0-.76,0-1.25V18.5h-1.88V17.18l2.06-.25,1-3.47h2.05l-.1,3.5h3V18.5h-3.07Z" transform="translate(-11.04 -10.52)"/><path d="M185.87,16.6a5.13,5.13,0,0,1,2.61.64A4.4,4.4,0,0,1,190.21,19a5.44,5.44,0,0,1,.62,2.68,5.72,5.72,0,0,1-.15,1.4h-7.75a4.92,4.92,0,0,0,1.15,3.27,3.55,3.55,0,0,0,2.65,1.08,3.72,3.72,0,0,0,1.89-.44,5.61,5.61,0,0,0,1.4-1.15l.74.66a5.34,5.34,0,0,1-2,2.16,5.74,5.74,0,0,1-3.05.78,6.26,6.26,0,0,1-3.11-.76,5.33,5.33,0,0,1-2.11-2.2,7.23,7.23,0,0,1-.76-3.4,6.63,6.63,0,0,1,.88-3.49,6,6,0,0,1,2.28-2.23A6.15,6.15,0,0,1,185.87,16.6Zm-.18,1.22a2.16,2.16,0,0,0-1.2.39,3,3,0,0,0-1,1.28A6.84,6.84,0,0,0,183,21.9h3.47a1.52,1.52,0,0,0,1.21-.38,1.7,1.7,0,0,0,.31-1.07,2.75,2.75,0,0,0-.66-1.9A2.06,2.06,0,0,0,185.69,17.82Z" transform="translate(-11.04 -10.52)"/><path d="M194.89,29.45a2,2,0,0,1-2-2,2,2,0,0,1,.58-1.46,2,2,0,0,1,2.89,0,2,2,0,0,1,.58,1.46,2,2,0,0,1-2,2Z" transform="translate(-11.04 -10.52)"/><path d="M210,28.13a3.74,3.74,0,0,0,2.47-.75,2.46,2.46,0,0,0,.9-2,2.39,2.39,0,0,0-.63-1.75,6.37,6.37,0,0,0-2-1.19l-1-.43a10.27,10.27,0,0,1-3.3-2.12,4.42,4.42,0,0,1-1.23-3.25,4.33,4.33,0,0,1,.76-2.57A4.74,4.74,0,0,1,208,12.43a8.75,8.75,0,0,1,5.59-.21,7.42,7.42,0,0,1,2,1l-.18,3.42h-1.92L213,13.66a4.53,4.53,0,0,0-1.9-.4,3.44,3.44,0,0,0-2.15.67,2.23,2.23,0,0,0-.89,1.91,2.44,2.44,0,0,0,.68,1.78,6,6,0,0,0,1.93,1.19l1.09.45a9.75,9.75,0,0,1,3.53,2.23,4.49,4.49,0,0,1,1,3.07,4.4,4.4,0,0,1-1.68,3.59A7.09,7.09,0,0,1,210,29.52a11.71,11.71,0,0,1-2.82-.35,8.35,8.35,0,0,1-2.38-1l.15-3.65h2l.5,3.07a6.62,6.62,0,0,0,1.19.39A6.34,6.34,0,0,0,210,28.13Z" transform="translate(-11.04 -10.52)"/><path d="M224,29.45a6.38,6.38,0,0,1-3.1-.76,5.57,5.57,0,0,1-2.2-2.21,6.92,6.92,0,0,1-.81-3.44,6.78,6.78,0,0,1,.85-3.47A5.8,5.8,0,0,1,221,17.36a6.36,6.36,0,0,1,6,0,6,6,0,0,1,2.26,2.19A6.71,6.71,0,0,1,230.1,23a6.78,6.78,0,0,1-.82,3.45,5.7,5.7,0,0,1-2.21,2.2A6.38,6.38,0,0,1,224,29.45Zm0-1.25a2.28,2.28,0,0,0,2.09-1.26,8.12,8.12,0,0,0,.72-3.88q0-5.22-2.81-5.22t-2.79,5.22a8.26,8.26,0,0,0,.71,3.88A2.26,2.26,0,0,0,224,28.2Z" transform="translate(-11.04 -10.52)"/><path d="M231.21,11.66l4.61-1.14.38.23-.1,3.57v9.45c0,.66,0,1.32,0,2s0,1.31,0,2l1.73.33v1h-6.59v-1l1.72-.33c0-.66,0-1.31,0-2s0-1.32,0-2V12.9l-1.85-.25Z" transform="translate(-11.04 -10.52)"/><path d="M246,18V17h4.82V18l-1.42.3-4.16,10.87h-1.49l-4.59-10.94L237.88,18V17h6.66V18l-1.95.3,2.76,7.35,2.53-7.32Z" transform="translate(-11.04 -10.52)"/><path d="M257.28,16.6a5.1,5.1,0,0,1,2.61.64A4.49,4.49,0,0,1,261.63,19a5.55,5.55,0,0,1,.62,2.68,5.72,5.72,0,0,1-.15,1.4h-7.76a4.87,4.87,0,0,0,1.16,3.27,3.53,3.53,0,0,0,2.64,1.08A3.67,3.67,0,0,0,260,27a5.65,5.65,0,0,0,1.41-1.15l.73.66a5.38,5.38,0,0,1-2,2.16,5.78,5.78,0,0,1-3.06.78,6.26,6.26,0,0,1-3.11-.76,5.25,5.25,0,0,1-2.1-2.2,7.11,7.11,0,0,1-.76-3.4A6.72,6.72,0,0,1,252,19.6a6,6,0,0,1,2.28-2.23A6.2,6.2,0,0,1,257.28,16.6Zm-.18,1.22a2.19,2.19,0,0,0-1.2.39,3,3,0,0,0-1,1.28,6.81,6.81,0,0,0-.52,2.41h3.47a1.54,1.54,0,0,0,1.22-.38,1.7,1.7,0,0,0,.3-1.07,2.75,2.75,0,0,0-.66-1.9A2.06,2.06,0,0,0,257.1,17.82Z" transform="translate(-11.04 -10.52)"/><path d="M266.3,29.45a2,2,0,0,1-2-2,2,2,0,0,1,.59-1.46,2,2,0,0,1,2.88,0,2,2,0,0,1,.59,1.46,1.94,1.94,0,0,1-.59,1.41A1.92,1.92,0,0,1,266.3,29.45Z" transform="translate(-11.04 -10.52)"/></svg>