<?xml version="1.0" encoding="UTF-8"?>
<svg width="320px" height="269px" viewBox="0 0 320 269" version="1.1" xmlns="http://www.w3.org/2000/svg" xmlns:xlink="http://www.w3.org/1999/xlink">
    <g id="Symbols" stroke="none" stroke-width="1" fill="none" fill-rule="evenodd">
        <g id="bars" fill-rule="nonzero">
            <path d="M311.428571,40 L8.57142857,40 C3.83785714,40 0,36.1621429 0,31.4285714 L0,8.57142857 C0,3.83785714 3.83785714,0 8.57142857,0 L311.428571,0 C316.162143,0 320,3.83785714 320,8.57142857 L320,31.4285714 C320,36.1621429 316.162143,40 311.428571,40 Z M311.428571,154.285714 L8.57142857,154.285714 C3.83785714,154.285714 0,150.447857 0,145.714286 L0,122.857143 C0,118.123571 3.83785714,114.285714 8.57142857,114.285714 L311.428571,114.285714 C316.162143,114.285714 320,118.123571 320,122.857143 L320,145.714286 C320,150.447857 316.162143,154.285714 311.428571,154.285714 Z M311.428571,268.571429 L8.57142857,268.571429 C3.83785714,268.571429 0,264.733571 0,260 L0,237.142857 C0,232.409286 3.83785714,228.571429 8.57142857,228.571429 L311.428571,228.571429 C316.162143,228.571429 320,232.409286 320,237.142857 L320,260 C320,264.733571 316.162143,268.571429 311.428571,268.571429 Z" id="Shape"></path>
        </g>
    </g>
</svg>