<svg width="25" height="13" viewBox="0 0 25 13" xmlns="http://www.w3.org/2000/svg" xmlns:xlink="http://www.w3.org/1999/xlink">
  <defs>
    <path id="a" d="m24.7867934 6.08687209-5.6707115-5.86330232c-.2037037-.24594186-.5616959-.27461241-.7995614-.06394186-.2378655.21062015-.2655946.58076744-.0618421.8267093.0190058.02292636.0396686.04434108.0618421.06394186l4.7010234 4.86653488h-22.45048737c-.31315789 0-.56705653.26251938-.56705653.58636047 0 .32384108.25389864.58631008.56705653.58631008h22.45048737l-4.7010234 4.8606395c-.2378655.2106202-.2655946.5807675-.0618421.8267093.2037524.2459419.5616959.2746124.7995614.0639419.0221735-.0196512.042885-.0410155.0618421-.0639419l5.6707602-5.86330229c.2198343-.22860853.2198343-.59794961-.0000487-.82665892z"/><mask id="b" fill="#fff"><use fill="#fff" fill-rule="evenodd" xlink:href="#a"/></mask>
  </defs>
  <g fill="none" fill-rule="evenodd"><use fill="#000" fill-rule="nonzero" xlink:href="#a"/><g fill="#c00" mask="url(#b)"><path d="m0 0h25v13h-25z"/></g></g></svg>