<svg xmlns="http://www.w3.org/2000/svg" xmlns:xlink="http://www.w3.org/1999/xlink" viewBox="0 0 132.79 34.01"><defs><linearGradient id="c85867ca-81ee-47a5-a3dc-4f2f393c22b1" x1="25.49" y1="18.56" x2="16.33" y2="15.9" gradientUnits="userSpaceOnUse"><stop offset="0" stop-color="#f0602e"/><stop offset="1" stop-color="#f03d26"/></linearGradient><linearGradient id="694e7086-3d67-4f9c-9f2c-220ee4e03362" x1="39.71" y1="24.56" x2="25.76" y2="9.87" gradientUnits="userSpaceOnUse"><stop offset="0" stop-color="#8fcdf2"/><stop offset="1" stop-color="#02ace9"/></linearGradient><linearGradient id="663a3c9e-15a3-4436-aaa2-51771264390e" x1="50.35" y1="24.51" x2="50.35" y2="9.75" gradientUnits="userSpaceOnUse"><stop offset="0" stop-color="#e7e868"/><stop offset="1" stop-color="#c3cf53"/></linearGradient></defs><title>Listen on Stitcher</title><g id="2250b628-2b30-489c-a4cf-0e076fa2840d" data-name="Background"><path id="2493ebbc-d8f3-44bc-8f5b-2b8e03e81093" data-name="&lt;Path&gt;" d="M132.78,9.08v-1a15.48,15.48,0,0,0-.2-2.15A6.95,6.95,0,0,0,128.9.88a7.14,7.14,0,0,0-2.05-.67A14.08,14.08,0,0,0,124.7,0l-1,0H9.07l-1,0A14.32,14.32,0,0,0,5.93.21a7,7,0,0,0-2,.67A6.83,6.83,0,0,0,2.15,2.15,6.77,6.77,0,0,0,.88,3.89,7,7,0,0,0,.21,5.94,14.08,14.08,0,0,0,0,8.09c0,.33,0,.66,0,1V24.94c0,.33,0,.66,0,1a12.92,12.92,0,0,0,.19,2.15,7,7,0,0,0,.67,2.05,6.55,6.55,0,0,0,1.27,1.73,6.38,6.38,0,0,0,1.74,1.27,7,7,0,0,0,2,.68A14.32,14.32,0,0,0,8.09,34H124.7a14,14,0,0,0,2.15-.19,7.17,7.17,0,0,0,2.05-.68,6.44,6.44,0,0,0,1.74-1.27,6.78,6.78,0,0,0,1.27-1.73,7,7,0,0,0,.67-2.05,15.48,15.48,0,0,0,.2-2.15v-1c0-.39,0-.78,0-1.18V10.25C132.79,9.86,132.79,9.47,132.78,9.08Z"/></g><g id="65e7e517-4d38-4131-a6aa-33afdcbd57ee" data-name="Logo"><rect x="7.31" y="9.77" width="8.64" height="14.86" fill="#fcdb04"/><rect x="15.96" y="9.77" width="9.68" height="14.86" fill="url(#c85867ca-81ee-47a5-a3dc-4f2f393c22b1)"/><rect x="25.63" y="9.77" width="14.17" height="14.86" fill="url(#694e7086-3d67-4f9c-9f2c-220ee4e03362)"/><rect x="46.03" y="9.77" width="8.64" height="14.86" fill="url(#663a3c9e-15a3-4436-aaa2-51771264390e)"/><line x1="42.92" y1="7" x2="42.92" y2="27.07" fill="none" stroke="#fff" stroke-miterlimit="10" stroke-width="1.2"/><line x1="41.36" y1="9.77" x2="41.36" y2="24.63" fill="none" stroke="#fff" stroke-miterlimit="10" stroke-width="0.52"/><line x1="44.47" y1="9.77" x2="44.47" y2="24.63" fill="none" stroke="#fff" stroke-miterlimit="10" stroke-width="0.52"/><rect x="13.54" y="9.77" width="2.07" height="14.86" fill="#f6911f"/></g><g id="1450ee77-afce-47c9-b6d7-a045ed392cd7" data-name="Type"><path d="M101.31,22.47V18.65c0-.21.06-.26.26-.26.45,0,.9,0,1.34,0,.22,0,.28.05.28.28,0,.87,0,1.74,0,2.63,0,.18,0,.24.24.24h3.06c.19,0,.22-.06.22-.24V18.64c0-.2,0-.26.25-.25h1.4c.17,0,.22.05.22.21v7.73c0,.18,0,.24-.24.24-.47,0-.94,0-1.4,0-.19,0-.24-.05-.24-.24V23.44c0-.19-.06-.24-.24-.24h-3c-.22,0-.24.07-.24.27v2.82c0,.23-.06.29-.28.28-.45,0-.89,0-1.34,0-.2,0-.26-.05-.26-.26C101.32,25,101.31,23.76,101.31,22.47Z" fill="#fff"/><path d="M110.72,22.49V18.7c0-.21,0-.3.28-.3q2.52,0,5,0c.24,0,.28.07.27.28s0,.72,0,1.08,0,.29-.27.28h-3.18c-.22,0-.29.06-.28.29s0,.72,0,1.08c0,.18,0,.22.24.22h2.39c.22,0,.29.06.27.28s0,.71,0,1.07c0,.19,0,.24-.24.24h-2.41c-.19,0-.26.05-.24.24,0,.42,0,.84,0,1.26,0,.21.06.24.26.24h3.47c.22,0,.28.06.27.27a9.73,9.73,0,0,0,0,1.08c0,.24,0,.31-.3.31-1.47,0-2.94,0-4.4,0-.3,0-.61,0-.91,0s-.25-.07-.25-.26C110.73,25,110.72,23.76,110.72,22.49Z" fill="#fff"/><path d="M69,20.47a2.84,2.84,0,0,0-1.57-.72,1.35,1.35,0,0,0-.81.16.66.66,0,0,0,0,1.22,3.71,3.71,0,0,0,1.2.45,3.36,3.36,0,0,1,2,1.08,2.42,2.42,0,0,1-.4,3.4l-.27.19a4.13,4.13,0,0,1-3.4.32,4.06,4.06,0,0,1-1.73-1c-.11-.1-.12-.16,0-.27.32-.33.62-.66.92-1,.11-.13.18-.12.29,0a3,3,0,0,0,1.77.86,1.55,1.55,0,0,0,.94-.22.75.75,0,0,0,.32-1,.77.77,0,0,0-.35-.34,5.26,5.26,0,0,0-1.44-.51,2.73,2.73,0,0,1-1.86-1.32,2.33,2.33,0,0,1,1-3.14l.25-.11a3.92,3.92,0,0,1,4.09.63c.16.13.19.22,0,.39C69.57,19.81,69.28,20.15,69,20.47Z" fill="#fff"/><path d="M96.49,18.2a3.94,3.94,0,0,1,3.06,1.42c.12.15.13.24,0,.37-.32.28-.62.58-.92.89-.13.12-.2.15-.33,0A2.36,2.36,0,0,0,94,22a2.72,2.72,0,0,0,.64,2.27,2.44,2.44,0,0,0,3.4,0c.15-.14.27-.4.43-.38s.31.24.46.37.42.41.65.59.09.24,0,.34a4.33,4.33,0,0,1-3.94,1.47,3.88,3.88,0,0,1-3.46-3.11,4.34,4.34,0,0,1,2.07-4.92A4.55,4.55,0,0,1,96.49,18.2Z" fill="#fff"/><path d="M87.82,18.41h3.29c.24,0,.3.07.29.29a10.27,10.27,0,0,0,0,1.11c0,.2-.05.26-.26.26-.72,0-1.42,0-2.12,0-.22,0-.26.06-.26.26v5.94c0,.26-.06.34-.32.32s-.83,0-1.25,0c-.24,0-.3,0-.3-.29,0-1.94,0-3.89,0-5.83,0-.39,0-.39-.4-.39h-2c-.19,0-.27,0-.26-.25q0-.58,0-1.17c0-.19.05-.24.24-.24Z" fill="#fff"/><path d="M75.14,18.41h3.32c.19,0,.24.05.24.24,0,.39,0,.79,0,1.19,0,.18,0,.24-.23.23H76.32c-.2,0-.25.05-.25.26v6c0,.25-.07.3-.31.29-.43,0-.85,0-1.28,0-.26,0-.29-.08-.29-.31V20.38c0-.24,0-.31-.3-.3-.7,0-1.4,0-2.1,0-.18,0-.26,0-.24-.24q0-.6,0-1.2c0-.21.08-.24.24-.24Z" fill="#fff"/><path d="M82.43,22.5v3.83c0,.21-.06.26-.26.25H80.83c-.18,0-.25,0-.25-.24V18.65c0-.21.07-.24.25-.24.44,0,.89,0,1.34,0,.2,0,.26,0,.26.25C82.42,19.94,82.43,21.22,82.43,22.5Z" fill="#fff"/><path d="M122.91,23.51c-.08-.15-.09-.21.07-.32a2.66,2.66,0,0,0,1-3.05,2.52,2.52,0,0,0-2.42-1.71c-1,0-2.08,0-3.11,0-.19,0-.24.05-.24.24v7.67c0,.18,0,.28.24.27.44,0,.89,0,1.34,0,.21,0,.24-.08.24-.26v-2c0-.24-.11-.55,0-.69s.44,0,.67-.05a.38.38,0,0,1,.42.26c.41.85.84,1.68,1.26,2.52.05.1.08.24.26.24h1.91C124,25.51,123.47,24.51,122.91,23.51Zm-1.53-1.46c-.4,0-.8,0-1.2,0-.15,0-.14-.08-.14-.18V20.12c0-.15,0-.19.18-.18h1.08a1,1,0,0,1,1,1,1,1,0,0,1-.87,1.12Z" fill="#fff"/><path d="M65.41,8.32V14h3.4v.72H64.56V8.32Z" fill="#fff"/><path d="M69.48,9.26V8.32h.77v.94Zm.77.83v4.66h-.77V10.09Z" fill="#fff"/><path d="M72,13.71a.75.75,0,0,0,.28.28,1.28,1.28,0,0,0,.4.15,2.22,2.22,0,0,0,.45,0l.38,0a1.07,1.07,0,0,0,.36-.1.58.58,0,0,0,.28-.21.56.56,0,0,0,.11-.35.51.51,0,0,0-.23-.45,1.93,1.93,0,0,0-.56-.25c-.23-.06-.47-.12-.73-.17A3.36,3.36,0,0,1,72,12.4a1.49,1.49,0,0,1-.56-.39,1,1,0,0,1-.23-.7,1.17,1.17,0,0,1,.16-.6,1.24,1.24,0,0,1,.41-.41,1.67,1.67,0,0,1,.56-.24A2.54,2.54,0,0,1,73,10a4.07,4.07,0,0,1,.73.06,1.83,1.83,0,0,1,.59.24,1.19,1.19,0,0,1,.41.45,1.76,1.76,0,0,1,.18.71h-.77a.72.72,0,0,0-.36-.62,1.4,1.4,0,0,0-.34-.13,2.33,2.33,0,0,0-.37,0,2.07,2.07,0,0,0-.35,0,1.35,1.35,0,0,0-.32.09.76.76,0,0,0-.24.18.49.49,0,0,0-.09.3.42.42,0,0,0,.14.32,1.28,1.28,0,0,0,.36.22,2.18,2.18,0,0,0,.49.14l.54.13a5.12,5.12,0,0,1,.56.15,1.8,1.8,0,0,1,.48.24,1.24,1.24,0,0,1,.35.37,1.19,1.19,0,0,1,.13.56,1.25,1.25,0,0,1-.18.7,1.32,1.32,0,0,1-.46.45,1.89,1.89,0,0,1-.64.24,4.15,4.15,0,0,1-.7.07,3.5,3.5,0,0,1-.74-.08,1.94,1.94,0,0,1-.62-.27,1.21,1.21,0,0,1-.43-.49,1.6,1.6,0,0,1-.18-.73h.76A.94.94,0,0,0,72,13.71Z" fill="#fff"/><path d="M77.92,10.09v.68H77v2.89a.72.72,0,0,0,0,.22.2.2,0,0,0,.08.12.38.38,0,0,0,.18.06h.64v.68h-.58a3.52,3.52,0,0,1-.51,0,.76.76,0,0,1-.34-.15.62.62,0,0,1-.2-.31,1.81,1.81,0,0,1-.06-.52v-3h-.79v-.68h.79V8.7H77v1.39Z" fill="#fff"/><path d="M82.06,14.45a2.13,2.13,0,0,1-1.31.4,2.4,2.4,0,0,1-1-.18,1.94,1.94,0,0,1-.69-.51,2.28,2.28,0,0,1-.42-.77,3.79,3.79,0,0,1-.15-1,2.7,2.7,0,0,1,.16-1,2.44,2.44,0,0,1,.45-.77,2.19,2.19,0,0,1,.7-.5A2.05,2.05,0,0,1,80.7,10a1.89,1.89,0,0,1,1,.25,2,2,0,0,1,.66.66,2.58,2.58,0,0,1,.34.86,4,4,0,0,1,.08.89H79.33a1.57,1.57,0,0,0,.07.58,1.23,1.23,0,0,0,.72.82,1.45,1.45,0,0,0,.65.13,1.33,1.33,0,0,0,.8-.22,1.06,1.06,0,0,0,.41-.69h.76A1.89,1.89,0,0,1,82.06,14.45Zm-.18-3A1.54,1.54,0,0,0,81.6,11a1.32,1.32,0,0,0-.42-.27,1.24,1.24,0,0,0-.52-.11,1.33,1.33,0,0,0-.54.11,1.15,1.15,0,0,0-.41.28,1.51,1.51,0,0,0-.27.42,1.72,1.72,0,0,0-.11.51H82A1.52,1.52,0,0,0,81.88,11.46Z" fill="#fff"/><path d="M84.32,10.09v.74h0A1.61,1.61,0,0,1,85.85,10a2.15,2.15,0,0,1,.77.12,1.25,1.25,0,0,1,.76.89,3,3,0,0,1,.07.69v3.06h-.76V11.6a.87.87,0,0,0-1-.94,1.66,1.66,0,0,0-.61.11,1,1,0,0,0-.42.31,1.23,1.23,0,0,0-.26.46,1.81,1.81,0,0,0-.08.58v2.63H83.6V10.09Z" fill="#fff"/><path d="M91,11.47a2.12,2.12,0,0,1,.43-.78,1.93,1.93,0,0,1,.71-.51,2.6,2.6,0,0,1,2,0,2,2,0,0,1,.71.51,2.27,2.27,0,0,1,.43.78,3.33,3.33,0,0,1,0,1.91,2.32,2.32,0,0,1-.43.77,2,2,0,0,1-.71.51,2.6,2.6,0,0,1-2,0,1.93,1.93,0,0,1-.71-.51,2.16,2.16,0,0,1-.43-.77,3.12,3.12,0,0,1,0-1.91Zm.78,1.71a1.55,1.55,0,0,0,.31.55,1.26,1.26,0,0,0,.46.33,1.39,1.39,0,0,0,1.13,0,1.35,1.35,0,0,0,.46-.33,1.55,1.55,0,0,0,.31-.55,2.19,2.19,0,0,0,.11-.75,2.21,2.21,0,0,0-.11-.76,1.64,1.64,0,0,0-.31-.55,1.38,1.38,0,0,0-1.59-.34,1.28,1.28,0,0,0-.46.34,1.64,1.64,0,0,0-.31.55,2.44,2.44,0,0,0,0,1.51Z" fill="#fff"/><path d="M97,10.09v.74h0A1.61,1.61,0,0,1,98.52,10a2.15,2.15,0,0,1,.77.12,1.28,1.28,0,0,1,.49.35,1.25,1.25,0,0,1,.27.54,3,3,0,0,1,.07.69v3.06h-.76V11.6a.93.93,0,0,0-.25-.69,1,1,0,0,0-.7-.25,1.57,1.57,0,0,0-.6.11,1,1,0,0,0-.43.31,1.23,1.23,0,0,0-.26.46,2.14,2.14,0,0,0-.08.58v2.63h-.77V10.09Z" fill="#fff"/><path d="M125.22,19.23V19.1h.9v.13h-.37v1h-.16v-1Z" fill="#fff"/><path d="M126.46,19.1l.35.95.36-.95h.2v1.13h-.14v-.94h0l-.35.94h-.13l-.35-.94h0v.94h-.14V19.1Z" fill="#fff"/></g></svg>