<svg id="097f3bcc-e38f-4539-bcea-c6c22805135e" data-name="RSS" xmlns="http://www.w3.org/2000/svg" viewBox="0 0 132.79 34.01"><title>subscribe-rss</title><g id="558adaf3-bcbd-440f-92e2-b3e089d82be1" data-name="Icon"><path id="02768c14-5ea8-45bd-8c24-a2e0f9ae6f31" data-name="&lt;Path&gt;" d="M132.78,9.08v-1a15.48,15.48,0,0,0-.2-2.15A6.95,6.95,0,0,0,128.9.88a7.14,7.14,0,0,0-2.05-.67A14.08,14.08,0,0,0,124.7,0l-1,0H9.07l-1,0A14.32,14.32,0,0,0,5.93.21a7,7,0,0,0-2,.67A6.83,6.83,0,0,0,2.15,2.15,6.77,6.77,0,0,0,.88,3.89,7,7,0,0,0,.21,5.94,14.08,14.08,0,0,0,0,8.09c0,.33,0,.66,0,1V24.94c0,.33,0,.66,0,1a12.92,12.92,0,0,0,.19,2.15,7,7,0,0,0,.67,2.05,6.55,6.55,0,0,0,1.27,1.73,6.38,6.38,0,0,0,1.74,1.27,7,7,0,0,0,2,.68A14.32,14.32,0,0,0,8.09,34H124.7a14,14,0,0,0,2.15-.19,7.17,7.17,0,0,0,2.05-.68,6.44,6.44,0,0,0,1.74-1.27,6.78,6.78,0,0,0,1.27-1.73,7,7,0,0,0,.67-2.05,15.48,15.48,0,0,0,.2-2.15v-1c0-.39,0-.78,0-1.18V10.25C132.79,9.86,132.79,9.47,132.78,9.08Z" fill="#ea7819"/><path id="9bc10529-7af8-42fc-8b92-a4f6ee41720b" data-name="&lt;Path&gt;" d="M132.12,23.76v1.18c0,.33,0,.65,0,1a14.09,14.09,0,0,1-.19,2.06,6.22,6.22,0,0,1-3.32,4.57,6.85,6.85,0,0,1-1.87.62,15.39,15.39,0,0,1-2,.18H8.1a15.53,15.53,0,0,1-2-.18,6.78,6.78,0,0,1-1.86-.62,6.28,6.28,0,0,1-2.72-2.71A6.52,6.52,0,0,1,.86,28a13.34,13.34,0,0,1-.18-2.05c0-.23,0-.46,0-.69V8.79c0-.23,0-.45,0-.69a15,15,0,0,1,.18-2,6.27,6.27,0,0,1,.62-1.86A5.91,5.91,0,0,1,2.62,2.62,6.11,6.11,0,0,1,4.19,1.47,6.77,6.77,0,0,1,6.05.86,14.73,14.73,0,0,1,8.1.68H124.68a14.48,14.48,0,0,1,2,.18,6.73,6.73,0,0,1,1.87.61,6.11,6.11,0,0,1,1.57,1.15,6.61,6.61,0,0,1,1.15,1.57,6.4,6.4,0,0,1,.6,1.87,13.83,13.83,0,0,1,.19,2v1c0,.39,0,.77,0,1.16V23.76Z" fill="#fff"/></g><rect id="1cbc3474-8bb8-4283-98f6-52b3d4feea7d" data-name="rect2989" x="6.41" y="5.97" width="22.24" height="22.24" rx="3.04" ry="3.04" fill="#ea7819"/><path d="M9.93,17.57A7.14,7.14,0,0,1,17,24.71H20a10.06,10.06,0,0,0-10-10.07v2.93Z" fill="#fff"/><path d="M9.93,12.38A12.31,12.31,0,0,1,22.2,24.72h2.93A15.25,15.25,0,0,0,9.93,9.45Z" fill="#fff"/><path d="M14,22.67a2,2,0,1,1-2-2,2,2,0,0,1,2,2Z" fill="#fff"/><path d="M36.45,7.48a1.78,1.78,0,0,0-1.09-.31,3.07,3.07,0,0,0-.53,0,1.64,1.64,0,0,0-.47.18,1,1,0,0,0-.32.34,1.07,1.07,0,0,0-.12.53.7.7,0,0,0,.17.48,1.46,1.46,0,0,0,.47.3,3.94,3.94,0,0,0,.66.19l.76.17.75.21a2.55,2.55,0,0,1,.66.33,1.67,1.67,0,0,1,.47.52,1.71,1.71,0,0,1,.17.79,1.54,1.54,0,0,1-.23.88,2,2,0,0,1-.59.6,2.7,2.7,0,0,1-.8.33,3.92,3.92,0,0,1-.89.1,3.75,3.75,0,0,1-1-.13,2.68,2.68,0,0,1-.85-.41,2,2,0,0,1-.57-.7,2.32,2.32,0,0,1-.21-1h.81a1.51,1.51,0,0,0,.15.7,1.4,1.4,0,0,0,.42.48,1.66,1.66,0,0,0,.6.28,2.69,2.69,0,0,0,.7.09,3.9,3.9,0,0,0,.58-.05,1.86,1.86,0,0,0,.53-.19,1,1,0,0,0,.37-.35,1,1,0,0,0,.15-.58.8.8,0,0,0-.18-.54,1.3,1.3,0,0,0-.47-.34,4.29,4.29,0,0,0-.66-.21L35.12,10l-.75-.2a2.87,2.87,0,0,1-.66-.3,1.35,1.35,0,0,1-.65-1.21,1.74,1.74,0,0,1,.2-.84,1.76,1.76,0,0,1,.53-.59,2.57,2.57,0,0,1,.75-.34,3.43,3.43,0,0,1,.86-.11,3.28,3.28,0,0,1,.91.12,2,2,0,0,1,.75.37,1.65,1.65,0,0,1,.5.63,2.3,2.3,0,0,1,.2.91H37A1.33,1.33,0,0,0,36.45,7.48Z" fill="#777878"/><path d="M42.07,13v-.74h0a1.53,1.53,0,0,1-.63.63,1.78,1.78,0,0,1-.89.21,2.09,2.09,0,0,1-.76-.12,1.32,1.32,0,0,1-.5-.35,1.36,1.36,0,0,1-.26-.54,2.82,2.82,0,0,1-.08-.68V8.38h.77v3.15a.86.86,0,0,0,.94.93,1.42,1.42,0,0,0,.61-.11,1.19,1.19,0,0,0,.43-.3,1.25,1.25,0,0,0,.25-.47A1.76,1.76,0,0,0,42,11V8.38h.76V13Z" fill="#777878"/><path d="M44.74,6.6V9h0a1.15,1.15,0,0,1,.59-.56,2.35,2.35,0,0,1,.89-.17,2.13,2.13,0,0,1,.94.19,2.1,2.1,0,0,1,.67.54,2.62,2.62,0,0,1,.4.78,3.43,3.43,0,0,1,0,1.87,2.33,2.33,0,0,1-.39.77,1.92,1.92,0,0,1-.67.52,2.27,2.27,0,0,1-.93.19,1.76,1.76,0,0,1-.38,0,1.55,1.55,0,0,1-.42-.12,1.26,1.26,0,0,1-.39-.22,1,1,0,0,1-.31-.34h0V13H44V6.6ZM47.49,10a2.05,2.05,0,0,0-.26-.56,1.27,1.27,0,0,0-.45-.38,1.36,1.36,0,0,0-.65-.15,1.21,1.21,0,0,0-.65.16,1.24,1.24,0,0,0-.45.4,1.67,1.67,0,0,0-.24.56,2.74,2.74,0,0,0-.08.64,2.84,2.84,0,0,0,.08.66,1.7,1.7,0,0,0,.26.56,1.31,1.31,0,0,0,.45.39,1.42,1.42,0,0,0,.68.15,1.34,1.34,0,0,0,.66-.15,1.21,1.21,0,0,0,.43-.41,2,2,0,0,0,.23-.57,3,3,0,0,0,.07-.67A2.65,2.65,0,0,0,47.49,10Z" fill="#777878"/><path d="M49.87,12a.75.75,0,0,0,.28.28,1.28,1.28,0,0,0,.4.15,2.15,2.15,0,0,0,.45,0l.38,0a1.07,1.07,0,0,0,.36-.1.58.58,0,0,0,.28-.21.56.56,0,0,0,.11-.35.51.51,0,0,0-.23-.45,1.93,1.93,0,0,0-.56-.25c-.23-.06-.47-.12-.74-.17a3.44,3.44,0,0,1-.73-.22,1.49,1.49,0,0,1-.56-.39,1,1,0,0,1-.23-.7,1.17,1.17,0,0,1,.16-.6,1.24,1.24,0,0,1,.41-.41,1.7,1.7,0,0,1,.55-.24,2.68,2.68,0,0,1,.62-.07,4.15,4.15,0,0,1,.73.06,1.83,1.83,0,0,1,.59.24,1.19,1.19,0,0,1,.41.45,1.76,1.76,0,0,1,.18.71H52a.85.85,0,0,0-.11-.38.82.82,0,0,0-.25-.24A1.4,1.4,0,0,0,51.26,9a2.45,2.45,0,0,0-.38,0,2,2,0,0,0-.34,0,1.35,1.35,0,0,0-.32.09.76.76,0,0,0-.24.18.49.49,0,0,0-.09.3.45.45,0,0,0,.14.33,1.55,1.55,0,0,0,.36.21,2,2,0,0,0,.49.14l.54.13c.19,0,.37.09.56.15a1.8,1.8,0,0,1,.48.24,1.24,1.24,0,0,1,.35.37,1.19,1.19,0,0,1,.13.56,1.25,1.25,0,0,1-.18.7,1.32,1.32,0,0,1-.46.45,1.89,1.89,0,0,1-.64.24,4.15,4.15,0,0,1-.7.07,3.5,3.5,0,0,1-.74-.08,1.94,1.94,0,0,1-.62-.27,1.21,1.21,0,0,1-.43-.49,1.74,1.74,0,0,1-.19-.73h.77A.83.83,0,0,0,49.87,12Z" fill="#777878"/><path d="M56.56,9.19a1.12,1.12,0,0,0-.77-.25,1.31,1.31,0,0,0-.69.16,1.17,1.17,0,0,0-.45.4,1.77,1.77,0,0,0-.24.58,3.08,3.08,0,0,0-.07.68,2.59,2.59,0,0,0,.08.63,1.56,1.56,0,0,0,.24.54,1.13,1.13,0,0,0,.42.39,1.32,1.32,0,0,0,.62.14,1.26,1.26,0,0,0,.89-.3,1.33,1.33,0,0,0,.39-.83h.78a2.15,2.15,0,0,1-.64,1.33,2.05,2.05,0,0,1-1.41.47,2.46,2.46,0,0,1-.94-.17,1.93,1.93,0,0,1-.69-.49,2.1,2.1,0,0,1-.41-.75,3.22,3.22,0,0,1-.14-1,3.46,3.46,0,0,1,.14-1,2.19,2.19,0,0,1,.4-.79,2.12,2.12,0,0,1,.69-.53,2.27,2.27,0,0,1,1-.19,2.94,2.94,0,0,1,.74.09,1.81,1.81,0,0,1,.61.29,1.76,1.76,0,0,1,.44.5,1.9,1.9,0,0,1,.21.72h-.79A1.17,1.17,0,0,0,56.56,9.19Z" fill="#777878"/><path d="M59.31,8.38v1h0A2,2,0,0,1,60,8.52a1.67,1.67,0,0,1,1-.25v.81a2.3,2.3,0,0,0-.79.12,1.33,1.33,0,0,0-.52.37,1.55,1.55,0,0,0-.29.59,3.2,3.2,0,0,0-.09.8V13h-.76V8.38Z" fill="#777878"/><path d="M61.66,7.54V6.6h.76v.94Zm.76.84V13h-.76V8.38Z" fill="#777878"/><path d="M64.4,6.6V9h0A1.19,1.19,0,0,1,65,8.44a2.35,2.35,0,0,1,.89-.17,2.15,2.15,0,0,1,.95.19,2.17,2.17,0,0,1,.66.54,2.4,2.4,0,0,1,.4.78,3.17,3.17,0,0,1,.14.93,3.56,3.56,0,0,1-.13.94,2.17,2.17,0,0,1-.4.77,1.92,1.92,0,0,1-.67.52,2.2,2.2,0,0,1-.93.19,1.82,1.82,0,0,1-.38,0,1.66,1.66,0,0,1-.42-.12,1.26,1.26,0,0,1-.39-.22,1.13,1.13,0,0,1-.31-.34h0V13h-.76V6.6ZM67.15,10a1.8,1.8,0,0,0-.26-.56,1.27,1.27,0,0,0-.45-.38,1.32,1.32,0,0,0-.64-.15,1.24,1.24,0,0,0-.66.16,1.21,1.21,0,0,0-.44.4,1.5,1.5,0,0,0-.25.56,2.74,2.74,0,0,0-.08.64,2.39,2.39,0,0,0,.09.66,1.68,1.68,0,0,0,.25.56,1.35,1.35,0,0,0,.46.39,1.38,1.38,0,0,0,.67.15,1.29,1.29,0,0,0,.66-.15,1.21,1.21,0,0,0,.43-.41,1.52,1.52,0,0,0,.23-.57,3,3,0,0,0,.08-.67A2.23,2.23,0,0,0,67.15,10Z" fill="#777878"/><path d="M72.24,12.73a2.07,2.07,0,0,1-1.31.4A2.37,2.37,0,0,1,70,13a1.94,1.94,0,0,1-.69-.51,2.12,2.12,0,0,1-.42-.77,3.79,3.79,0,0,1-.15-1,2.7,2.7,0,0,1,.16-1A2.12,2.12,0,0,1,70,8.45a2.13,2.13,0,0,1,.88-.18,1.89,1.89,0,0,1,1,.25,2,2,0,0,1,.66.66,2.58,2.58,0,0,1,.34.86,4,4,0,0,1,.08.89H69.5a1.81,1.81,0,0,0,.08.58,1.23,1.23,0,0,0,.72.82,1.45,1.45,0,0,0,.65.13,1.33,1.33,0,0,0,.8-.22,1.1,1.1,0,0,0,.41-.69h.76A1.89,1.89,0,0,1,72.24,12.73Zm-.18-3a1.31,1.31,0,0,0-.7-.69,1.27,1.27,0,0,0-.52-.11,1.33,1.33,0,0,0-.54.11,1.3,1.3,0,0,0-.41.28,1.51,1.51,0,0,0-.27.42,2.11,2.11,0,0,0-.12.51h2.68A1.58,1.58,0,0,0,72.06,9.74Z" fill="#777878"/><path d="M77.56,13,75.83,8.38h.86L78,12.25h0l1.27-3.87h.8L78.38,13Z" fill="#777878"/><path d="M80.83,7.54V6.6h.76v.94Zm.76.84V13h-.76V8.38Z" fill="#777878"/><path d="M86.9,13a1,1,0,0,1-.55.12.66.66,0,0,1-.47-.17.7.7,0,0,1-.18-.54A1.81,1.81,0,0,1,85,13a2.44,2.44,0,0,1-.9.17,2.9,2.9,0,0,1-.6-.07,1.48,1.48,0,0,1-.49-.23,1.08,1.08,0,0,1-.33-.4,1.37,1.37,0,0,1-.12-.6,1.39,1.39,0,0,1,.13-.65,1.29,1.29,0,0,1,.36-.41,1.64,1.64,0,0,1,.5-.23,5.45,5.45,0,0,1,.58-.14l.6-.09a4.58,4.58,0,0,0,.5-.09.79.79,0,0,0,.34-.18.38.38,0,0,0,.13-.32.71.71,0,0,0-.1-.41.59.59,0,0,0-.24-.23A.92.92,0,0,0,85,9a2.31,2.31,0,0,0-.37,0,1.57,1.57,0,0,0-.81.19.78.78,0,0,0-.35.69h-.76a1.56,1.56,0,0,1,.18-.72,1.45,1.45,0,0,1,.43-.49,1.73,1.73,0,0,1,.62-.26,2.9,2.9,0,0,1,.74-.08,4.21,4.21,0,0,1,.62,0,1.54,1.54,0,0,1,.57.19,1.07,1.07,0,0,1,.4.39,1.23,1.23,0,0,1,.15.65v2.39a1.36,1.36,0,0,0,0,.4q0,.12.21.12l.23,0Zm-1.24-2.39a.83.83,0,0,1-.38.16,3.85,3.85,0,0,1-.49.08l-.52.07a2.15,2.15,0,0,0-.47.13.85.85,0,0,0-.33.26.69.69,0,0,0-.13.45.63.63,0,0,0,.07.32.58.58,0,0,0,.2.21,1.1,1.1,0,0,0,.29.12,1.79,1.79,0,0,0,.34,0,1.72,1.72,0,0,0,.64-.1,1.48,1.48,0,0,0,.45-.26,1.15,1.15,0,0,0,.25-.34.93.93,0,0,0,.08-.35Z" fill="#777878"/><path d="M33.51,17.8h4.41a3.36,3.36,0,0,1,2.28.67A2.29,2.29,0,0,1,41,20.31a2.71,2.71,0,0,1-.19,1.1,2.49,2.49,0,0,1-.45.7,2,2,0,0,1-.51.39c-.17.07-.29.13-.37.15v0a1.66,1.66,0,0,1,.44.13,1.37,1.37,0,0,1,.45.33,1.76,1.76,0,0,1,.34.59,2.64,2.64,0,0,1,.14.91,8.48,8.48,0,0,0,.12,1.49,1.93,1.93,0,0,0,.38.95H39.58a1.43,1.43,0,0,1-.21-.66c0-.24,0-.47,0-.7a7.09,7.09,0,0,0-.07-1.1,1.91,1.91,0,0,0-.29-.77,1.12,1.12,0,0,0-.56-.44,2.37,2.37,0,0,0-.91-.15H35.13v3.82H33.51ZM35.13,22h2.64A1.72,1.72,0,0,0,39,21.66a1.47,1.47,0,0,0,.4-1.11,1.87,1.87,0,0,0-.13-.73,1.09,1.09,0,0,0-.36-.43,1.45,1.45,0,0,0-.51-.21,4,4,0,0,0-.6-.05H35.13Z"/><path d="M43.66,24a2.08,2.08,0,0,0,.18.91,1.69,1.69,0,0,0,.5.62,2.15,2.15,0,0,0,.75.35A3.72,3.72,0,0,0,46,26a3,3,0,0,0,.9-.12,2.05,2.05,0,0,0,.61-.32,1.19,1.19,0,0,0,.33-.45,1.34,1.34,0,0,0,.11-.51,1.11,1.11,0,0,0-.24-.79,1.39,1.39,0,0,0-.53-.36A10.71,10.71,0,0,0,46,23.09l-1.61-.42a3.9,3.9,0,0,1-1-.41,2.34,2.34,0,0,1-.63-.57,2.27,2.27,0,0,1-.33-.66,3,3,0,0,1-.1-.72,2.43,2.43,0,0,1,.29-1.21,2.52,2.52,0,0,1,.77-.85,3.31,3.31,0,0,1,1.09-.51,4.89,4.89,0,0,1,2.59,0,3.29,3.29,0,0,1,1.12.57,2.78,2.78,0,0,1,.77.93,2.72,2.72,0,0,1,.28,1.28H47.69a1.6,1.6,0,0,0-.61-1.27,2.37,2.37,0,0,0-1.38-.37,2.93,2.93,0,0,0-.58.06,1.82,1.82,0,0,0-.54.19,1.22,1.22,0,0,0-.41.37,1.15,1.15,0,0,0,.14,1.36,1.87,1.87,0,0,0,.79.42l.41.11.8.22.85.23.6.16a2.34,2.34,0,0,1,.79.39,2.29,2.29,0,0,1,.56.56,2.34,2.34,0,0,1,.34.69,2.57,2.57,0,0,1,.11.72,2.68,2.68,0,0,1-.32,1.34,2.75,2.75,0,0,1-.83.9,3.49,3.49,0,0,1-1.18.51,5.47,5.47,0,0,1-2.82,0,3.48,3.48,0,0,1-1.22-.6,2.88,2.88,0,0,1-.82-1A3.31,3.31,0,0,1,42.05,24Z"/><path d="M52,24a1.94,1.94,0,0,0,.19.91,1.6,1.6,0,0,0,.5.62,2,2,0,0,0,.74.35,3.72,3.72,0,0,0,.91.11,2.93,2.93,0,0,0,.9-.12,1.94,1.94,0,0,0,.61-.32,1.12,1.12,0,0,0,.34-.45,1.32,1.32,0,0,0,.1-.51,1.11,1.11,0,0,0-.24-.79,1.36,1.36,0,0,0-.52-.36c-.33-.12-.71-.23-1.14-.34l-1.61-.42a3.83,3.83,0,0,1-1-.41,2.29,2.29,0,0,1-.62-.57,1.86,1.86,0,0,1-.33-.66,2.55,2.55,0,0,1-.1-.72,2.41,2.41,0,0,1,1.06-2.06,3.36,3.36,0,0,1,1.08-.51,5.19,5.19,0,0,1,1.23-.16,5,5,0,0,1,1.36.19,3.21,3.21,0,0,1,1.12.57,2.67,2.67,0,0,1,.77.93,2.72,2.72,0,0,1,.29,1.28H56.05a1.57,1.57,0,0,0-.6-1.27,2.42,2.42,0,0,0-1.39-.37,2.93,2.93,0,0,0-.58.06,1.92,1.92,0,0,0-.54.19,1.32,1.32,0,0,0-.41.37,1.08,1.08,0,0,0-.16.59,1,1,0,0,0,.31.77,1.81,1.81,0,0,0,.79.42l.41.11.79.22.86.23.6.16a2.54,2.54,0,0,1,.79.39,2.48,2.48,0,0,1,.56.56,2.31,2.31,0,0,1,.33.69,2.25,2.25,0,0,1,.11.72,2.52,2.52,0,0,1-1.15,2.24,3.44,3.44,0,0,1-1.17.51,5.51,5.51,0,0,1-2.83,0,3.43,3.43,0,0,1-1.21-.6,3,3,0,0,1-.83-1A3.59,3.59,0,0,1,50.41,24Z"/><path d="M62.92,17.8h6.36v1.41H64.53v2.43H68.7V23H64.53v4.12H62.92Z"/><path d="M71.52,24.11a2.35,2.35,0,0,0,.11.75,1.77,1.77,0,0,0,.33.64,1.47,1.47,0,0,0,.55.43,2,2,0,0,0,1.84-.11,1.71,1.71,0,0,0,.59-.84h1.39a2.8,2.8,0,0,1-.4,1,3,3,0,0,1-.68.73,3.14,3.14,0,0,1-.9.44A3.77,3.77,0,0,1,71.92,27a3,3,0,0,1-1-.73,3.08,3.08,0,0,1-.63-1.12,4.62,4.62,0,0,1-.21-1.43,4.08,4.08,0,0,1,.22-1.36,3.51,3.51,0,0,1,.65-1.13,3,3,0,0,1,2.35-1.06,3,3,0,0,1,1.42.33,3.28,3.28,0,0,1,1,.88,3.68,3.68,0,0,1,.6,1.26,4,4,0,0,1,.09,1.46Zm3.43-1a2.51,2.51,0,0,0-.15-.67,1.78,1.78,0,0,0-.33-.57A1.69,1.69,0,0,0,74,21.5a1.51,1.51,0,0,0-.68-.15,1.75,1.75,0,0,0-.7.14,1.6,1.6,0,0,0-.54.38,1.8,1.8,0,0,0-.36.56,2,2,0,0,0-.15.7Z"/><path d="M78.69,24.11a2.67,2.67,0,0,0,.11.75,2.15,2.15,0,0,0,.33.64,1.5,1.5,0,0,0,.56.43,1.78,1.78,0,0,0,.8.17,1.83,1.83,0,0,0,1-.28,1.71,1.71,0,0,0,.59-.84h1.39a2.82,2.82,0,0,1-1.09,1.7,3,3,0,0,1-.89.44A3.8,3.8,0,0,1,79.09,27a3,3,0,0,1-1-.73,3.08,3.08,0,0,1-.63-1.12,4.33,4.33,0,0,1-.22-1.43,4.09,4.09,0,0,1,.23-1.36,3.49,3.49,0,0,1,.64-1.13,3.13,3.13,0,0,1,1-.77,3,3,0,0,1,1.34-.29,3,3,0,0,1,1.41.33,3.07,3.07,0,0,1,1,.88,3.35,3.35,0,0,1,.6,1.26,3.76,3.76,0,0,1,.1,1.46Zm3.44-1a2.51,2.51,0,0,0-.15-.67,1.63,1.63,0,0,0-.34-.57,1.65,1.65,0,0,0-.51-.39,1.54,1.54,0,0,0-.68-.15,1.75,1.75,0,0,0-.7.14,1.64,1.64,0,0,0-.55.38,1.8,1.8,0,0,0-.36.56,2,2,0,0,0-.15.7Z"/><path d="M91,27.08H89.62v-.91h0a1.73,1.73,0,0,1-.87.84,2.84,2.84,0,0,1-1.2.26A3.25,3.25,0,0,1,86.15,27a2.84,2.84,0,0,1-1-.76,3.41,3.41,0,0,1-.58-1.14,5,5,0,0,1-.19-1.41,4.35,4.35,0,0,1,.25-1.57A3.12,3.12,0,0,1,85.3,21a2.65,2.65,0,0,1,.93-.63,3,3,0,0,1,1.06-.2,3.36,3.36,0,0,1,.63.06,2.49,2.49,0,0,1,.62.19,2.77,2.77,0,0,1,.55.33,1.62,1.62,0,0,1,.42.48h0V17.8H91ZM85.87,23.8a3.46,3.46,0,0,0,.11.84,2.19,2.19,0,0,0,.34.74,1.63,1.63,0,0,0,1.4.72,1.61,1.61,0,0,0,.84-.21,1.7,1.7,0,0,0,.58-.55,2.39,2.39,0,0,0,.34-.76,3.56,3.56,0,0,0,.11-.86,2.71,2.71,0,0,0-.5-1.74,1.62,1.62,0,0,0-1.35-.63,1.61,1.61,0,0,0-.87.22,1.9,1.9,0,0,0-.58.55,2.39,2.39,0,0,0-.32.79A3.74,3.74,0,0,0,85.87,23.8Z"/></svg>